<?xml version="1.0" encoding="UTF-8" standalone="no"?>
<!-- Created with Inkscape (http://www.inkscape.org/) -->

<svg width="317.5mm" height="143.34868mm" viewBox="0 0 317.5 143.34868" version="1.1" id="svg1" xmlns="http://www.w3.org/2000/svg" xmlns:svg="http://www.w3.org/2000/svg">
  <defs id="defs1">
    <rect x="60.923729" y="129.46292" width="1652.5562" height="496.52838" id="rect1" />
  </defs>
  <g id="layer1" transform="translate(53.75,-76.825661)">
    <rect style="fill:#000000;fill-opacity:1;fill-rule:evenodd;stroke-width:0.197133;-inkscape-stroke:none" id="rect18" width="317.5" height="143.34868" x="-53.75" y="76.825661" />
    <g id="g29">
      <path id="path18" style="font-weight:bold;font-size:28px;line-height:1.25;font-family:Monospace;-inkscape-font-specification:'Monospace Bold';letter-spacing:0px;word-spacing:0px;white-space:pre;fill:#1e90ff;stroke-width:0.191924" d="M -23.758032 114.61509 L -23.758032 115.26001 L -20.53394 115.26001 L -17.30933 115.26001 L -14.085238 115.26001 L -14.085238 114.61509 L -17.30933 114.61509 L -20.53394 114.61509 L -23.758032 114.61509 z M -7.6365356 114.61509 L -7.6365356 115.26001 L -4.4119263 115.26001 L -1.1878337 115.26001 L 2.036259 115.26001 L 5.2608683 115.26001 L 8.4849609 115.26001 L 11.70957 115.26001 L 14.933663 115.26001 L 14.933663 114.61509 L 11.70957 114.61509 L 8.4849609 114.61509 L 5.2608683 114.61509 L 2.036259 114.61509 L -1.1878337 114.61509 L -4.4119263 114.61509 L -7.6365356 114.61509 z M 21.382365 114.61509 L 21.382365 115.26001 L 24.606974 115.26001 L 27.831067 115.26001 L 31.055676 115.26001 L 34.279769 115.26001 L 37.503861 115.26001 L 40.728471 115.26001 L 40.728471 114.61509 L 37.503861 114.61509 L 34.279769 114.61509 L 31.055676 114.61509 L 27.831067 114.61509 L 24.606974 114.61509 L 21.382365 114.61509 z M 53.625875 114.61509 L 53.625875 115.26001 L 56.849967 115.26001 L 60.074577 115.26001 L 63.298669 115.26001 L 66.523279 115.26001 L 69.747371 115.26001 L 72.971464 115.26001 L 76.196073 115.26001 L 76.196073 114.61509 L 72.971464 114.61509 L 69.747371 114.61509 L 66.523279 114.61509 L 63.298669 114.61509 L 60.074577 114.61509 L 56.849967 114.61509 L 53.625875 114.61509 z M 82.644775 114.61509 L 82.644775 115.26001 L 85.868868 115.26001 L 89.093477 115.26001 L 92.31757 115.26001 L 95.542179 115.26001 L 98.766272 115.26001 L 101.99088 115.26001 L 105.21497 115.26001 L 105.21497 114.61509 L 101.99088 114.61509 L 98.766272 114.61509 L 95.542179 114.61509 L 92.31757 114.61509 L 89.093477 114.61509 L 85.868868 114.61509 L 82.644775 114.61509 z M 111.66368 114.61509 L 111.66368 115.26001 L 114.88777 115.26001 L 118.11238 115.26001 L 118.11238 114.61509 L 114.88777 114.61509 L 111.66368 114.61509 z M 131.00978 114.61509 L 131.00978 115.26001 L 134.23387 115.26001 L 134.23387 114.61509 L 131.00978 114.61509 z M 147.13128 114.61509 L 147.13128 115.26001 L 150.35537 115.26001 L 153.57998 115.26001 L 156.80407 115.26001 L 160.02868 115.26001 L 163.25278 115.26001 L 166.47738 115.26001 L 169.70148 115.26001 L 169.70148 114.61509 L 166.47738 114.61509 L 163.25278 114.61509 L 160.02868 114.61509 L 156.80407 114.61509 L 153.57998 114.61509 L 150.35537 114.61509 L 147.13128 114.61509 z M 176.15018 114.61509 L 176.15018 115.26001 L 179.37427 115.26001 L 182.59888 115.26001 L 185.82297 115.26001 L 185.82297 114.61509 L 182.59888 114.61509 L 179.37427 114.61509 L 176.15018 114.61509 z M 195.49628 114.61509 L 195.49628 115.26001 L 198.72038 115.26001 L 201.94499 115.26001 L 205.16908 115.26001 L 205.16908 114.61509 L 201.94499 114.61509 L 198.72038 114.61509 L 195.49628 114.61509 z M 224.51519 114.61509 L 224.51519 115.26001 L 227.73928 115.26001 L 230.96389 115.26001 L 234.18798 115.26001 L 237.41259 115.26001 L 240.63668 115.26001 L 243.86129 115.26001 L 247.08538 115.26001 L 247.08538 114.61509 L 243.86129 114.61509 L 243.86077 114.61509 L 240.63668 114.61509 L 237.41259 114.61509 L 234.18798 114.61509 L 230.96389 114.61509 L 227.73928 114.61509 L 224.51519 114.61509 z M -25.671094 116.88833 L -25.671094 122.26216 L -25.074748 122.26216 L -25.074748 116.88833 L -25.671094 116.88833 z M -12.77369 116.88833 L -12.77369 122.26216 L -12.177344 122.26216 L -12.177344 116.88833 L -12.77369 116.88833 z M -9.5495972 116.88833 L -9.5495972 122.26216 L -8.9532511 122.26216 L -8.9532511 116.88833 L -9.5495972 116.88833 z M 16.245211 116.88833 L 16.245211 122.26216 L 16.841557 122.26216 L 16.841557 116.88833 L 16.245211 116.88833 z M 19.469303 116.88833 L 19.469303 122.26216 L 20.065649 122.26216 L 20.065649 116.88833 L 19.469303 116.88833 z M 42.039502 116.88833 L 42.039502 122.26216 L 42.636365 122.26216 L 42.636365 116.88833 L 42.039502 116.88833 z M 51.712813 116.88833 L 51.712813 122.26216 L 52.309159 122.26216 L 52.309159 116.88833 L 51.712813 116.88833 z M 77.507104 116.88833 L 77.507104 122.26216 L 78.103967 122.26216 L 78.103967 116.88833 L 77.507104 116.88833 z M 80.731714 116.88833 L 80.731714 122.26216 L 81.32806 122.26216 L 81.32806 116.88833 L 80.731714 116.88833 z M 106.52601 116.88833 L 106.52601 122.26216 L 107.12287 122.26216 L 107.12287 116.88833 L 106.52601 116.88833 z M 109.75061 116.88833 L 109.75061 122.26216 L 110.34696 122.26216 L 110.34696 116.88833 L 109.75061 116.88833 z M 119.42341 116.88833 L 119.42341 122.26216 L 120.01976 122.26216 L 120.01976 116.88833 L 119.42341 116.88833 z M 129.09672 116.88833 L 129.09672 122.26216 L 129.69307 122.26216 L 129.69307 116.88833 L 129.09672 116.88833 z M 135.54491 116.88833 L 135.54491 122.26216 L 136.14177 122.26216 L 136.14177 116.88833 L 135.54491 116.88833 z M 145.21822 116.88833 L 145.21822 122.26216 L 145.81456 122.26216 L 145.81456 116.88833 L 145.21822 116.88833 z M 171.01251 116.88833 L 171.01251 122.26216 L 171.60937 122.26216 L 171.60937 116.88833 L 171.01251 116.88833 z M 174.23712 116.88833 L 174.23712 122.26216 L 174.83346 122.26216 L 174.83346 116.88833 L 174.23712 116.88833 z M 187.13452 116.88833 L 187.13452 122.26216 L 187.73087 122.26216 L 187.73087 116.88833 L 187.13452 116.88833 z M 193.58322 116.88833 L 193.58322 122.26216 L 194.17957 122.26216 L 194.17957 116.88833 L 193.58322 116.88833 z M 206.48011 116.88833 L 206.48011 122.26216 L 207.07697 122.26216 L 207.07697 116.88833 L 206.48011 116.88833 z M 222.60212 116.88833 L 222.60212 122.26216 L 223.19847 122.26216 L 223.19847 116.88833 L 222.60212 116.88833 z M 248.39642 116.88833 L 248.39642 122.26216 L 248.99328 122.26216 L 248.99328 116.88833 L 248.39642 116.88833 z M 2.036259 121.33251 L 2.036259 121.97743 L 5.2608683 121.97743 L 5.2608683 121.33251 L 2.036259 121.33251 z M 34.279769 121.33251 L 34.279769 121.97743 L 37.503861 121.97743 L 37.503861 121.33251 L 34.279769 121.33251 z M -25.671094 123.60575 L -25.671094 128.97958 L -25.074748 128.97958 L -25.074748 123.60575 L -25.671094 123.60575 z M -12.77369 123.60575 L -12.77369 128.97958 L -12.177344 128.97958 L -12.177344 123.60575 L -12.77369 123.60575 z M -9.5495972 123.60575 L -9.5495972 128.97958 L -8.9532511 128.97958 L -8.9532511 123.60575 L -9.5495972 123.60575 z M 0.12319743 123.60575 L 0.12319743 128.97958 L 0.72006022 128.97958 L 0.72006022 123.60575 L 0.12319743 123.60575 z M 6.5718994 123.60575 L 6.5718994 128.97958 L 7.1687622 128.97958 L 7.1687622 123.60575 L 6.5718994 123.60575 z M 16.245211 123.60575 L 16.245211 128.97958 L 16.841557 128.97958 L 16.841557 123.60575 L 16.245211 123.60575 z M 19.469303 123.60575 L 19.469303 128.97958 L 20.065649 128.97958 L 20.065649 123.60575 L 19.469303 123.60575 z M 32.366707 123.60575 L 32.366707 128.97958 L 32.963053 128.97958 L 32.963053 123.60575 L 32.366707 123.60575 z M 38.815409 123.60575 L 38.815409 128.97958 L 39.411755 128.97958 L 39.411755 123.60575 L 38.815409 123.60575 z M 42.039502 123.60575 L 42.039502 128.97958 L 42.636365 128.97958 L 42.636365 123.60575 L 42.039502 123.60575 z M 51.712813 123.60575 L 51.712813 128.97958 L 52.309159 128.97958 L 52.309159 123.60575 L 51.712813 123.60575 z M 77.507104 123.60575 L 77.507104 128.97958 L 78.103967 128.97958 L 78.103967 123.60575 L 77.507104 123.60575 z M 80.731714 123.60575 L 80.731714 128.97958 L 81.32806 128.97958 L 81.32806 123.60575 L 80.731714 123.60575 z M 106.52601 123.60575 L 106.52601 128.97958 L 107.12287 128.97958 L 107.12287 123.60575 L 106.52601 123.60575 z M 109.75061 123.60575 L 109.75061 128.97958 L 110.34696 128.97958 L 110.34696 123.60575 L 109.75061 123.60575 z M 122.64802 123.60575 L 122.64802 128.97958 L 123.24436 128.97958 L 123.24436 123.60575 L 122.64802 123.60575 z M 129.09672 123.60575 L 129.09672 128.97958 L 129.69307 128.97958 L 129.69307 123.60575 L 129.09672 123.60575 z M 135.54491 123.60575 L 135.54491 128.97958 L 136.14177 128.97958 L 136.14177 123.60575 L 135.54491 123.60575 z M 145.21822 123.60575 L 145.21822 128.97958 L 145.81456 128.97958 L 145.81456 123.60575 L 145.21822 123.60575 z M 171.01251 123.60575 L 171.01251 128.97958 L 171.60937 128.97958 L 171.60937 123.60575 L 171.01251 123.60575 z M 174.23712 123.60575 L 174.23712 128.97958 L 174.83346 128.97958 L 174.83346 123.60575 L 174.23712 123.60575 z M 187.13452 123.60575 L 187.13452 128.97958 L 187.73087 128.97958 L 187.73087 123.60575 L 187.13452 123.60575 z M 193.58322 123.60575 L 193.58322 128.97958 L 194.17957 128.97958 L 194.17957 123.60575 L 193.58322 123.60575 z M 206.48011 123.60575 L 206.48011 128.97958 L 207.07697 128.97958 L 207.07697 123.60575 L 206.48011 123.60575 z M 222.60212 123.60575 L 222.60212 128.97958 L 223.19847 128.97958 L 223.19847 123.60575 L 222.60212 123.60575 z M 248.39642 123.60575 L 248.39642 128.97958 L 248.99328 128.97958 L 248.99328 123.60575 L 248.39642 123.60575 z M 2.036259 128.04992 L 2.036259 128.69433 L 5.2608683 128.69433 L 5.2608683 128.04992 L 2.036259 128.04992 z M 66.523279 128.04992 L 66.523279 128.69433 L 69.747371 128.69433 L 72.971464 128.69433 L 76.196073 128.69433 L 76.196073 128.04992 L 72.971464 128.04992 L 69.747371 128.04992 L 66.523279 128.04992 z M 92.31757 128.04992 L 92.31757 128.69433 L 95.542179 128.69433 L 95.542179 128.04992 L 92.31757 128.04992 z M 124.56108 128.04992 L 124.56108 128.69433 L 127.78517 128.69433 L 127.78517 128.04992 L 124.56108 128.04992 z M 160.02868 128.04992 L 160.02868 128.69433 L 163.25278 128.69433 L 166.47738 128.69433 L 169.70148 128.69433 L 169.70148 128.04992 L 166.47738 128.04992 L 163.25278 128.04992 L 160.02868 128.04992 z M 237.41259 128.04992 L 237.41259 128.69433 L 240.63668 128.69433 L 243.86129 128.69433 L 247.08538 128.69433 L 247.08538 128.04992 L 243.86129 128.04992 L 243.86077 128.04992 L 240.63668 128.04992 L 237.41259 128.04992 z M -25.671094 130.32265 L -25.671094 135.69649 L -25.074748 135.69649 L -25.074748 130.32265 L -25.671094 130.32265 z M -12.77369 130.32265 L -12.77369 135.69649 L -12.177344 135.69649 L -12.177344 130.32265 L -12.77369 130.32265 z M -9.5495972 130.32265 L -9.5495972 135.69649 L -8.9532511 135.69649 L -8.9532511 130.32265 L -9.5495972 130.32265 z M 16.245211 130.32265 L 16.245211 135.69649 L 16.841557 135.69649 L 16.841557 130.32265 L 16.245211 130.32265 z M 19.469303 130.32265 L 19.469303 135.69649 L 20.065649 135.69649 L 20.065649 130.32265 L 19.469303 130.32265 z M 32.366707 130.32265 L 32.366707 135.69649 L 32.963053 135.69649 L 32.963053 130.32265 L 32.366707 130.32265 z M 38.815409 130.32265 L 38.815409 135.69649 L 39.411755 135.69649 L 39.411755 130.32265 L 38.815409 130.32265 z M 42.039502 130.32265 L 42.039502 135.69649 L 42.636365 135.69649 L 42.636365 130.32265 L 42.039502 130.32265 z M 51.712813 130.32265 L 51.712813 135.69649 L 52.309159 135.69649 L 52.309159 130.32265 L 51.712813 130.32265 z M 64.609701 130.32265 L 64.609701 135.69649 L 65.206563 135.69649 L 65.206563 130.32265 L 64.609701 130.32265 z M 80.731714 130.32265 L 80.731714 135.69649 L 81.32806 135.69649 L 81.32806 130.32265 L 80.731714 130.32265 z M 90.404508 130.32265 L 90.404508 135.69649 L 91.000854 135.69649 L 91.000854 130.32265 L 90.404508 130.32265 z M 96.85321 130.32265 L 96.85321 135.69649 L 97.449556 135.69649 L 97.449556 130.32265 L 96.85321 130.32265 z M 106.52601 130.32265 L 106.52601 135.69649 L 107.12287 135.69649 L 107.12287 130.32265 L 106.52601 130.32265 z M 109.75061 130.32265 L 109.75061 135.69649 L 110.34696 135.69649 L 110.34696 130.32265 L 109.75061 130.32265 z M 135.54491 130.32265 L 135.54491 135.69649 L 136.14177 135.69649 L 136.14177 130.32265 L 135.54491 130.32265 z M 145.21822 130.32265 L 145.21822 135.69649 L 145.81456 135.69649 L 145.81456 130.32265 L 145.21822 130.32265 z M 158.11562 130.32265 L 158.11562 135.69649 L 158.71197 135.69649 L 158.71197 130.32265 L 158.11562 130.32265 z M 174.23712 130.32265 L 174.23712 135.69649 L 174.83346 135.69649 L 174.83346 130.32265 L 174.23712 130.32265 z M 187.13452 130.32265 L 187.13452 135.69649 L 187.73087 135.69649 L 187.73087 130.32265 L 187.13452 130.32265 z M 193.58322 130.32265 L 193.58322 135.69649 L 194.17957 135.69649 L 194.17957 130.32265 L 193.58322 130.32265 z M 206.48011 130.32265 L 206.48011 135.69649 L 207.07697 135.69649 L 207.07697 130.32265 L 206.48011 130.32265 z M 222.60212 130.32265 L 222.60212 135.69649 L 223.19847 135.69649 L 223.19847 130.32265 L 222.60212 130.32265 z M 235.49953 130.32265 L 235.49953 135.69649 L 236.09587 135.69649 L 236.09587 130.32265 L 235.49953 130.32265 z M 34.279769 134.76683 L 34.279769 135.41175 L 37.503861 135.41175 L 37.503861 134.76683 L 34.279769 134.76683 z M 43.952563 134.76683 L 43.952563 135.41175 L 47.177173 135.41175 L 47.177173 134.76683 L 43.952563 134.76683 z M 69.747371 134.76683 L 69.747371 135.41175 L 72.971464 135.41175 L 76.196073 135.41175 L 76.196073 134.76683 L 72.971464 134.76683 L 69.747371 134.76683 z M 160.02868 134.76683 L 160.02868 135.41175 L 163.25278 135.41175 L 166.47738 135.41175 L 169.70148 135.41175 L 169.70148 134.76683 L 166.47738 134.76683 L 163.25278 134.76683 L 160.02868 134.76683 z M 237.41259 134.76683 L 237.41259 135.41175 L 240.63668 135.41175 L 243.86129 135.41175 L 247.08538 135.41175 L 247.08538 134.76683 L 243.86129 134.76683 L 243.86077 134.76683 L 240.63668 134.76683 L 237.41259 134.76683 z M -25.671094 137.04007 L -25.671094 142.41391 L -25.074748 142.41391 L -25.074748 137.04007 L -25.671094 137.04007 z M -12.77369 137.04007 L -12.77369 142.41391 L -12.177344 142.41391 L -12.177344 137.04007 L -12.77369 137.04007 z M -9.5495972 137.04007 L -9.5495972 142.41391 L -8.9532511 142.41391 L -8.9532511 137.04007 L -9.5495972 137.04007 z M 16.245211 137.04007 L 16.245211 142.41391 L 16.841557 142.41391 L 16.841557 137.04007 L 16.245211 137.04007 z M 19.469303 137.04007 L 19.469303 142.41391 L 20.065649 142.41391 L 20.065649 137.04007 L 19.469303 137.04007 z M 48.488204 137.04007 L 48.488204 142.41391 L 49.08455 142.41391 L 49.08455 137.04007 L 48.488204 137.04007 z M 51.712813 137.04007 L 51.712813 142.41391 L 52.309159 142.41391 L 52.309159 137.04007 L 51.712813 137.04007 z M 64.609701 137.04007 L 64.609701 142.41391 L 65.206563 142.41391 L 65.206563 137.04007 L 64.609701 137.04007 z M 67.83431 137.04007 L 67.83431 142.41391 L 68.430656 142.41391 L 68.430656 137.04007 L 67.83431 137.04007 z M 77.507104 137.04007 L 77.507104 142.41391 L 78.103967 142.41391 L 78.103967 137.04007 L 77.507104 137.04007 z M 80.731714 137.04007 L 80.731714 142.41391 L 81.32806 142.41391 L 81.32806 137.04007 L 80.731714 137.04007 z M 90.404508 137.04007 L 90.404508 142.41391 L 91.000854 142.41391 L 91.000854 137.04007 L 90.404508 137.04007 z M 96.85321 137.04007 L 96.85321 142.41391 L 97.449556 142.41391 L 97.449556 137.04007 L 96.85321 137.04007 z M 106.52601 137.04007 L 106.52601 142.41391 L 107.12287 142.41391 L 107.12287 137.04007 L 106.52601 137.04007 z M 109.75061 137.04007 L 109.75061 142.41391 L 110.34696 142.41391 L 110.34696 137.04007 L 109.75061 137.04007 z M 135.54491 137.04007 L 135.54491 142.41391 L 136.14177 142.41391 L 136.14177 137.04007 L 135.54491 137.04007 z M 145.21822 137.04007 L 145.21822 142.41391 L 145.81456 142.41391 L 145.81456 137.04007 L 145.21822 137.04007 z M 171.01251 137.04007 L 171.01251 142.41391 L 171.60937 142.41391 L 171.60937 137.04007 L 171.01251 137.04007 z M 174.23712 137.04007 L 174.23712 142.41391 L 174.83346 142.41391 L 174.83346 137.04007 L 174.23712 137.04007 z M 187.13452 137.04007 L 187.13452 142.41391 L 187.73087 142.41391 L 187.73087 137.04007 L 187.13452 137.04007 z M 193.58322 137.04007 L 193.58322 142.41391 L 194.17957 142.41391 L 194.17957 137.04007 L 193.58322 137.04007 z M 206.48011 137.04007 L 206.48011 142.41391 L 207.07697 142.41391 L 207.07697 137.04007 L 206.48011 137.04007 z M 222.60212 137.04007 L 222.60212 142.41391 L 223.19847 142.41391 L 223.19847 137.04007 L 222.60212 137.04007 z M 248.39642 137.04007 L 248.39642 142.41391 L 248.99328 142.41391 L 248.99328 137.04007 L 248.39642 137.04007 z M -36.655436 141.48425 L -36.655436 142.12917 L -33.431344 142.12917 L -30.206734 142.12917 L -26.982642 142.12917 L -26.982642 141.48425 L -30.206734 141.48425 L -33.431344 141.48425 L -36.655436 141.48425 z M 34.279769 141.48425 L 34.279769 142.12917 L 37.503861 142.12917 L 40.728471 142.12917 L 40.728471 141.48425 L 37.503861 141.48425 L 34.279769 141.48425 z M 92.31757 141.48425 L 92.31757 142.12917 L 95.542179 142.12917 L 95.542179 141.48425 L 92.31757 141.48425 z M 118.11238 141.48425 L 118.11238 142.12917 L 121.33647 142.12917 L 121.33647 141.48425 L 118.11238 141.48425 z M 160.02868 141.48425 L 160.02868 142.12917 L 163.25278 142.12917 L 166.47738 142.12917 L 169.70148 142.12917 L 169.70148 141.48425 L 166.47738 141.48425 L 163.25278 141.48425 L 160.02868 141.48425 z M 208.39369 141.48425 L 208.39369 142.12917 L 211.61778 142.12917 L 214.84187 142.12917 L 218.06648 142.12917 L 218.06648 141.48425 L 214.84187 141.48425 L 211.61778 141.48425 L 208.39369 141.48425 z M 237.41259 141.48425 L 237.41259 142.12917 L 240.63668 142.12917 L 243.86129 142.12917 L 247.08538 142.12917 L 247.08538 141.48425 L 243.86129 141.48425 L 243.86077 141.48425 L 240.63668 141.48425 L 237.41259 141.48425 z M -38.568498 143.75749 L -38.568498 149.13133 L -37.972152 149.13133 L -37.972152 143.75749 L -38.568498 143.75749 z M -12.77369 143.75749 L -12.77369 149.13133 L -12.177344 149.13133 L -12.177344 143.75749 L -12.77369 143.75749 z M -9.5495972 143.75749 L -9.5495972 149.13133 L -8.9532511 149.13133 L -8.9532511 143.75749 L -9.5495972 143.75749 z M 16.245211 143.75749 L 16.245211 149.13133 L 16.841557 149.13133 L 16.841557 143.75749 L 16.245211 143.75749 z M 19.469303 143.75749 L 19.469303 149.13133 L 20.065649 149.13133 L 20.065649 143.75749 L 19.469303 143.75749 z M 32.366707 143.75749 L 32.366707 149.13133 L 32.963053 149.13133 L 32.963053 143.75749 L 32.366707 143.75749 z M 42.039502 143.75749 L 42.039502 149.13133 L 42.636365 149.13133 L 42.636365 143.75749 L 42.039502 143.75749 z M 48.488204 143.75749 L 48.488204 149.13133 L 49.08455 149.13133 L 49.08455 143.75749 L 48.488204 143.75749 z M 51.712813 143.75749 L 51.712813 149.13133 L 52.309159 149.13133 L 52.309159 143.75749 L 51.712813 143.75749 z M 64.609701 143.75749 L 64.609701 149.13133 L 65.206563 149.13133 L 65.206563 143.75749 L 64.609701 143.75749 z M 71.058403 143.75749 L 71.058403 149.13133 L 71.655265 149.13133 L 71.655265 143.75749 L 71.058403 143.75749 z M 77.507104 143.75749 L 77.507104 149.13133 L 78.103967 149.13133 L 78.103967 143.75749 L 77.507104 143.75749 z M 80.731714 143.75749 L 80.731714 149.13133 L 81.32806 149.13133 L 81.32806 143.75749 L 80.731714 143.75749 z M 106.52601 143.75749 L 106.52601 149.13133 L 107.12287 149.13133 L 107.12287 143.75749 L 106.52601 143.75749 z M 109.75061 143.75749 L 109.75061 149.13133 L 110.34696 149.13133 L 110.34696 143.75749 L 109.75061 143.75749 z M 116.19932 143.75749 L 116.19932 149.13133 L 116.79566 149.13133 L 116.79566 143.75749 L 116.19932 143.75749 z M 122.64802 143.75749 L 122.64802 149.13133 L 123.24436 149.13133 L 123.24436 143.75749 L 122.64802 143.75749 z M 135.54491 143.75749 L 135.54491 149.13133 L 136.14177 149.13133 L 136.14177 143.75749 L 135.54491 143.75749 z M 145.21822 143.75749 L 145.21822 149.13133 L 145.81456 149.13133 L 145.81456 143.75749 L 145.21822 143.75749 z M 158.11562 143.75749 L 158.11562 149.13133 L 158.71197 149.13133 L 158.71197 143.75749 L 158.11562 143.75749 z M 174.23712 143.75749 L 174.23712 149.13133 L 174.83346 149.13133 L 174.83346 143.75749 L 174.23712 143.75749 z M 187.13452 143.75749 L 187.13452 149.13133 L 187.73087 149.13133 L 187.73087 143.75749 L 187.13452 143.75749 z M 193.58322 143.75749 L 193.58322 149.13133 L 194.17957 149.13133 L 194.17957 143.75749 L 193.58322 143.75749 z M 219.37751 143.75749 L 219.37751 149.13133 L 219.97438 149.13133 L 219.97438 143.75749 L 219.37751 143.75749 z M 222.60212 143.75749 L 222.60212 149.13133 L 223.19847 149.13133 L 223.19847 143.75749 L 222.60212 143.75749 z M 235.49953 143.75749 L 235.49953 149.13133 L 236.09587 149.13133 L 236.09587 143.75749 L 235.49953 143.75749 z M 2.036259 148.20167 L 2.036259 148.84659 L 5.2608683 148.84659 L 5.2608683 148.20167 L 2.036259 148.20167 z M 66.523279 148.20167 L 66.523279 148.84659 L 69.747371 148.84659 L 69.747371 148.20167 L 66.523279 148.20167 z M 237.41259 148.20167 L 237.41259 148.84659 L 240.63668 148.84659 L 243.86129 148.84659 L 247.08538 148.84659 L 247.08538 148.20167 L 243.86129 148.20167 L 243.86077 148.20167 L 240.63668 148.20167 L 237.41259 148.20167 z M -38.568498 150.47491 L -38.568498 155.84874 L -37.972152 155.84874 L -37.972152 150.47491 L -38.568498 150.47491 z M -12.77369 150.47491 L -12.77369 155.84874 L -12.177344 155.84874 L -12.177344 150.47491 L -12.77369 150.47491 z M -9.5495972 150.47491 L -9.5495972 155.84874 L -8.9532511 155.84874 L -8.9532511 150.47491 L -9.5495972 150.47491 z M 0.12319743 150.47491 L 0.12319743 155.84874 L 0.72006022 155.84874 L 0.72006022 150.47491 L 0.12319743 150.47491 z M 6.5718994 150.47491 L 6.5718994 155.84874 L 7.1687622 155.84874 L 7.1687622 150.47491 L 6.5718994 150.47491 z M 16.245211 150.47491 L 16.245211 155.84874 L 16.841557 155.84874 L 16.841557 150.47491 L 16.245211 150.47491 z M 19.469303 150.47491 L 19.469303 155.84874 L 20.065649 155.84874 L 20.065649 150.47491 L 19.469303 150.47491 z M 32.366707 150.47491 L 32.366707 155.84874 L 32.963053 155.84874 L 32.963053 150.47491 L 32.366707 150.47491 z M 42.039502 150.47491 L 42.039502 155.84874 L 42.636365 155.84874 L 42.636365 150.47491 L 42.039502 150.47491 z M 48.488204 150.47491 L 48.488204 155.84874 L 49.08455 155.84874 L 49.08455 150.47491 L 48.488204 150.47491 z M 51.712813 150.47491 L 51.712813 155.84874 L 52.309159 155.84874 L 52.309159 150.47491 L 51.712813 150.47491 z M 77.507104 150.47491 L 77.507104 155.84874 L 78.103967 155.84874 L 78.103967 150.47491 L 77.507104 150.47491 z M 80.731714 150.47491 L 80.731714 155.84874 L 81.32806 155.84874 L 81.32806 150.47491 L 80.731714 150.47491 z M 106.52601 150.47491 L 106.52601 155.84874 L 107.12287 155.84874 L 107.12287 150.47491 L 106.52601 150.47491 z M 109.75061 150.47491 L 109.75061 155.84874 L 110.34696 155.84874 L 110.34696 150.47491 L 109.75061 150.47491 z M 116.19932 150.47491 L 116.19932 155.84874 L 116.79566 155.84874 L 116.79566 150.47491 L 116.19932 150.47491 z M 125.87211 150.47491 L 125.87211 155.84874 L 126.46846 155.84874 L 126.46846 150.47491 L 125.87211 150.47491 z M 135.54491 150.47491 L 135.54491 155.84874 L 136.14177 155.84874 L 136.14177 150.47491 L 135.54491 150.47491 z M 145.21822 150.47491 L 145.21822 155.84874 L 145.81456 155.84874 L 145.81456 150.47491 L 145.21822 150.47491 z M 158.11562 150.47491 L 158.11562 155.84874 L 158.71197 155.84874 L 158.71197 150.47491 L 158.11562 150.47491 z M 174.23712 150.47491 L 174.23712 155.84874 L 174.83346 155.84874 L 174.83346 150.47491 L 174.23712 150.47491 z M 187.13452 150.47491 L 187.13452 155.84874 L 187.73087 155.84874 L 187.73087 150.47491 L 187.13452 150.47491 z M 193.58322 150.47491 L 193.58322 155.84874 L 194.17957 155.84874 L 194.17957 150.47491 L 193.58322 150.47491 z M 219.37751 150.47491 L 219.37751 155.84874 L 219.97438 155.84874 L 219.97438 150.47491 L 219.37751 150.47491 z M 222.60212 150.47491 L 222.60212 155.84874 L 223.19847 155.84874 L 223.19847 150.47491 L 222.60212 150.47491 z M 248.39642 150.47491 L 248.39642 155.84874 L 248.99328 155.84874 L 248.99328 150.47491 L 248.39642 150.47491 z M -36.655436 154.91909 L -36.655436 155.56401 L -33.431344 155.56401 L -30.206734 155.56401 L -26.982642 155.56401 L -23.758032 155.56401 L -20.53394 155.56401 L -17.30933 155.56401 L -14.085238 155.56401 L -14.085238 154.91909 L -17.30933 154.91909 L -20.53394 154.91909 L -23.758032 154.91909 L -26.982642 154.91909 L -30.206734 154.91909 L -33.431344 154.91909 L -36.655436 154.91909 z M -7.6365356 154.91909 L -7.6365356 155.56401 L -4.4119263 155.56401 L -1.1878337 155.56401 L -1.1878337 154.91909 L -4.4119263 154.91909 L -7.6365356 154.91909 z M 8.4849609 154.91909 L 8.4849609 155.56401 L 11.70957 155.56401 L 14.933663 155.56401 L 14.933663 154.91909 L 11.70957 154.91909 L 8.4849609 154.91909 z M 21.382365 154.91909 L 21.382365 155.56401 L 24.606974 155.56401 L 27.831067 155.56401 L 31.055676 155.56401 L 31.055676 154.91909 L 27.831067 154.91909 L 24.606974 154.91909 L 21.382365 154.91909 z M 43.952563 154.91909 L 43.952563 155.56401 L 47.177173 155.56401 L 47.177173 154.91909 L 43.952563 154.91909 z M 53.625875 154.91909 L 53.625875 155.56401 L 56.849967 155.56401 L 60.074577 155.56401 L 63.298669 155.56401 L 66.523279 155.56401 L 69.747371 155.56401 L 72.971464 155.56401 L 76.196073 155.56401 L 76.196073 154.91909 L 72.971464 154.91909 L 69.747371 154.91909 L 66.523279 154.91909 L 63.298669 154.91909 L 60.074577 154.91909 L 56.849967 154.91909 L 53.625875 154.91909 z M 82.644775 154.91909 L 82.644775 155.56401 L 85.868868 155.56401 L 89.093477 155.56401 L 92.31757 155.56401 L 95.542179 155.56401 L 98.766272 155.56401 L 101.99088 155.56401 L 105.21497 155.56401 L 105.21497 154.91909 L 101.99088 154.91909 L 98.766272 154.91909 L 95.542179 154.91909 L 92.31757 154.91909 L 89.093477 154.91909 L 85.868868 154.91909 L 82.644775 154.91909 z M 111.66368 154.91909 L 111.66368 155.56401 L 114.88777 155.56401 L 114.88777 154.91909 L 111.66368 154.91909 z M 127.78517 154.91909 L 127.78517 155.56401 L 131.00978 155.56401 L 134.23387 155.56401 L 134.23387 154.91909 L 131.00978 154.91909 L 127.78517 154.91909 z M 176.15018 154.91909 L 176.15018 155.56401 L 179.37427 155.56401 L 182.59888 155.56401 L 185.82297 155.56401 L 185.82297 154.91909 L 182.59888 154.91909 L 179.37427 154.91909 L 176.15018 154.91909 z M 195.49628 154.91909 L 195.49628 155.56401 L 198.72038 155.56401 L 201.94499 155.56401 L 205.16908 155.56401 L 208.39317 155.56401 L 208.39317 154.91909 L 205.16908 154.91909 L 201.94499 154.91909 L 198.72038 154.91909 L 195.49628 154.91909 z M 224.51519 154.91909 L 224.51519 155.56401 L 227.73928 155.56401 L 230.96389 155.56401 L 234.18798 155.56401 L 237.41259 155.56401 L 240.63668 155.56401 L 240.63668 154.91909 L 237.41259 154.91909 L 234.18798 154.91909 L 230.96389 154.91909 L 227.73928 154.91909 L 224.51519 154.91909 z " />
      <path id="path19" style="font-weight:bold;font-size:28px;line-height:1.25;font-family:Monospace;-inkscape-font-specification:'Monospace Bold';letter-spacing:0px;word-spacing:0px;white-space:pre;fill:#ffff00;stroke-width:0.191924" d="M 147.13128 154.91909 L 147.13128 155.56401 L 150.35537 155.56401 L 153.57998 155.56401 L 156.80407 155.56401 L 156.80407 154.91909 L 153.57998 154.91909 L 150.35537 154.91909 L 147.13128 154.91909 z M 160.02868 154.91909 L 160.02868 155.56401 L 163.25278 155.56401 L 163.25278 154.91909 L 160.02868 154.91909 z M 211.61778 154.91909 L 211.61778 155.56401 L 214.84187 155.56401 L 214.84187 154.91909 L 211.61778 154.91909 z M 243.86077 154.91909 L 243.86077 155.56401 L 247.08538 155.56401 L 247.08538 154.91909 L 243.86077 154.91909 z M 145.21822 157.19233 L 145.21822 162.56616 L 145.81456 162.56616 L 145.81456 157.19233 L 145.21822 157.19233 z M 164.56432 157.19233 L 164.56432 162.56616 L 165.16067 162.56616 L 165.16067 157.19233 L 164.56432 157.19233 z M 209.70472 157.19233 L 209.70472 162.56616 L 210.30107 162.56616 L 210.30107 157.19233 L 209.70472 157.19233 z M 216.15342 157.19233 L 216.15342 162.56616 L 216.74977 162.56616 L 216.74977 157.19233 L 216.15342 157.19233 z M 241.94771 157.19233 L 241.94771 162.56616 L 242.54458 162.56616 L 242.54458 157.19233 L 241.94771 157.19233 z M 248.39642 157.19233 L 248.39642 162.56616 L 248.99328 162.56616 L 248.99328 157.19233 L 248.39642 157.19233 z M 147.13128 161.6365 L 147.13128 162.28143 L 150.35537 162.28143 L 150.35537 161.6365 L 147.13128 161.6365 z M 160.02868 161.6365 L 160.02868 162.28143 L 163.25278 162.28143 L 163.25278 161.6365 L 160.02868 161.6365 z M 166.47738 161.6365 L 166.47738 162.28143 L 169.70148 162.28143 L 172.92609 162.28143 L 176.15018 162.28143 L 176.15018 161.6365 L 172.92609 161.6365 L 172.92557 161.6365 L 169.70148 161.6365 L 166.47738 161.6365 z M 179.37427 161.6365 L 179.37427 162.28143 L 182.59888 162.28143 L 185.82297 162.28143 L 189.04758 162.28143 L 189.04758 161.6365 L 185.82297 161.6365 L 182.59888 161.6365 L 179.37427 161.6365 z M 192.27168 161.6365 L 192.27168 162.28143 L 195.49628 162.28143 L 198.72038 162.28143 L 201.94499 162.28143 L 205.16908 162.28143 L 208.39317 162.28143 L 208.39317 161.6365 L 205.16908 161.6365 L 201.94499 161.6365 L 198.72038 161.6365 L 195.49628 161.6365 L 192.27168 161.6365 z M 211.61778 161.6365 L 211.61778 162.28143 L 214.84187 162.28143 L 214.84187 161.6365 L 211.61778 161.6365 z M 218.06648 161.6365 L 218.06648 162.28143 L 221.29058 162.28143 L 224.51519 162.28143 L 227.73928 162.28143 L 227.73928 161.6365 L 224.51519 161.6365 L 221.29058 161.6365 L 218.06648 161.6365 z M 230.96389 161.6365 L 230.96389 162.28143 L 234.18798 162.28143 L 237.41259 162.28143 L 240.63668 162.28143 L 240.63668 161.6365 L 237.41259 161.6365 L 234.18798 161.6365 L 230.96389 161.6365 z M 151.66692 163.90975 L 151.66692 169.28358 L 152.26326 169.28358 L 152.26326 163.90975 L 151.66692 163.90975 z M 158.11562 163.90975 L 158.11562 169.28358 L 158.71197 169.28358 L 158.71197 163.90975 L 158.11562 163.90975 z M 164.56432 163.90975 L 164.56432 169.28358 L 165.16067 169.28358 L 165.16067 163.90975 L 164.56432 163.90975 z M 177.46121 163.90975 L 177.46121 169.28358 L 178.05807 169.28358 L 178.05807 163.90975 L 177.46121 163.90975 z M 190.35861 163.90975 L 190.35861 169.28358 L 190.95496 169.28358 L 190.95496 163.90975 L 190.35861 163.90975 z M 209.70472 163.90975 L 209.70472 169.28358 L 210.30107 169.28358 L 210.30107 163.90975 L 209.70472 163.90975 z M 216.15342 163.90975 L 216.15342 169.28358 L 216.74977 169.28358 L 216.74977 163.90975 L 216.15342 163.90975 z M 229.05083 163.90975 L 229.05083 169.28358 L 229.64717 169.28358 L 229.64717 163.90975 L 229.05083 163.90975 z M 241.94771 163.90975 L 241.94771 169.28358 L 242.54458 169.28358 L 242.54458 163.90975 L 241.94771 163.90975 z M 248.39642 163.90975 L 248.39642 169.28358 L 248.99328 169.28358 L 248.99328 163.90975 L 248.39642 163.90975 z M 238.64817 164.15676 L 238.75049 165.54324 L 239.29309 165.54324 L 239.39541 164.15676 L 238.64817 164.15676 z M 170.50763 166.2202 L 170.50763 166.892 L 172.11993 166.892 L 172.11993 166.2202 L 170.50763 166.2202 z M 235.80028 167.1018 C 235.64265 167.1018 235.52091 167.14132 235.43493 167.22014 C 235.35253 167.29896 235.31143 167.41701 235.31143 167.57464 C 235.31143 167.72511 235.35412 167.84158 235.4401 167.92398 C 235.52609 168.00638 235.64624 168.04748 235.80028 168.04748 C 235.95076 168.04748 236.06881 168.00427 236.15479 167.91829 C 236.24077 167.83231 236.28398 167.71795 236.28398 167.57464 C 236.28398 167.42418 236.24077 167.30771 236.15479 167.22531 C 236.07239 167.14291 235.95434 167.1018 235.80028 167.1018 z M 172.92557 168.35392 L 172.92557 168.99885 L 176.15018 168.99885 L 176.15018 168.35392 L 172.92557 168.35392 z M 185.82297 168.35392 L 185.82297 168.99885 L 189.04758 168.99885 L 189.04758 168.35392 L 185.82297 168.35392 z M 151.66692 170.62717 L 151.66692 176.001 L 152.26326 176.001 L 152.26326 170.62717 L 151.66692 170.62717 z M 158.11562 170.62717 L 158.11562 176.001 L 158.71197 176.001 L 158.71197 170.62717 L 158.11562 170.62717 z M 164.56432 170.62717 L 164.56432 176.001 L 165.16067 176.001 L 165.16067 170.62717 L 164.56432 170.62717 z M 177.46121 170.62717 L 177.46121 176.001 L 178.05807 176.001 L 178.05807 170.62717 L 177.46121 170.62717 z M 183.90991 170.62717 L 183.90991 176.001 L 184.50677 176.001 L 184.50677 170.62717 L 183.90991 170.62717 z M 190.35861 170.62717 L 190.35861 176.001 L 190.95496 176.001 L 190.95496 170.62717 L 190.35861 170.62717 z M 196.80732 170.62717 L 196.80732 176.001 L 197.40366 176.001 L 197.40366 170.62717 L 196.80732 170.62717 z M 203.25602 170.62717 L 203.25602 176.001 L 203.85236 176.001 L 203.85236 170.62717 L 203.25602 170.62717 z M 209.70472 170.62717 L 209.70472 176.001 L 210.30107 176.001 L 210.30107 170.62717 L 209.70472 170.62717 z M 216.15342 170.62717 L 216.15342 176.001 L 216.74977 176.001 L 216.74977 170.62717 L 216.15342 170.62717 z M 222.60212 170.62717 L 222.60212 176.001 L 223.19847 176.001 L 223.19847 170.62717 L 222.60212 170.62717 z M 229.05083 170.62717 L 229.05083 176.001 L 229.64717 176.001 L 229.64717 170.62717 L 229.05083 170.62717 z M 241.94771 170.62717 L 241.94771 176.001 L 242.54458 176.001 L 242.54458 170.62717 L 241.94771 170.62717 z M 248.39642 170.62717 L 248.39642 176.001 L 248.99328 176.001 L 248.99328 170.62717 L 248.39642 170.62717 z M 238.74481 173.98045 C 238.72334 174.11659 238.69646 174.27734 238.66419 174.46363 C 238.63553 174.64634 238.60336 174.83289 238.56756 175.02277 C 238.53172 175.21623 238.4943 175.39172 238.4549 175.54935 L 239.03006 175.54935 C 239.08383 175.42754 239.13547 175.29685 239.18561 175.15713 C 239.23577 175.02099 239.28057 174.88292 239.31997 174.7432 C 239.36293 174.60706 239.40035 174.47795 239.43262 174.35614 C 239.46842 174.23434 239.49739 174.12893 239.51892 174.03937 L 239.4812 173.98045 L 238.74481 173.98045 z M 153.57998 175.07134 L 153.57998 175.71575 L 156.80407 175.71575 L 156.80407 175.07134 L 153.57998 175.07134 z M 166.47738 175.07134 L 166.47738 175.71575 L 169.70148 175.71575 L 172.92609 175.71575 L 176.15018 175.71575 L 176.15018 175.07134 L 172.92609 175.07134 L 172.92557 175.07134 L 169.70148 175.07134 L 166.47738 175.07134 z M 179.37427 175.07134 L 179.37427 175.71575 L 182.59888 175.71575 L 182.59888 175.07134 L 179.37427 175.07134 z M 192.27168 175.07134 L 192.27168 175.71575 L 195.49628 175.71575 L 195.49628 175.07134 L 192.27168 175.07134 z M 198.72038 175.07134 L 198.72038 175.71575 L 201.94499 175.71575 L 201.94499 175.07134 L 198.72038 175.07134 z M 205.16908 175.07134 L 205.16908 175.71575 L 208.39317 175.71575 L 208.39317 175.07134 L 205.16908 175.07134 z M 211.61778 175.07134 L 211.61778 175.71575 L 214.84187 175.71575 L 214.84187 175.07134 L 211.61778 175.07134 z M 218.06648 175.07134 L 218.06648 175.71575 L 221.29058 175.71575 L 221.29058 175.07134 L 218.06648 175.07134 z M 224.51519 175.07134 L 224.51519 175.71575 L 227.73928 175.71575 L 227.73928 175.07134 L 224.51519 175.07134 z M 230.96389 175.07134 L 230.96389 175.71575 L 234.18798 175.71575 L 237.41259 175.71575 L 237.41259 175.07134 L 234.18798 175.07134 L 230.96389 175.07134 z M 243.86077 175.07134 L 243.86077 175.71575 L 247.08538 175.71575 L 247.08538 175.07134 L 243.86077 175.07134 z " />
      <path style="font-weight:bold;font-size:28px;line-height:1.25;font-family:Monospace;-inkscape-font-specification:'Monospace Bold';letter-spacing:0px;word-spacing:0px;white-space:pre;fill:#1e90ff;stroke-width:0.191924" d="m 219.96877,181.48216 q -0.2472,0 -0.4729,-0.0967 -0.22033,-0.0967 -0.3708,-0.27944 h -0.0537 l -0.11822,0.32243 h -0.59113 v -4.08414 h 0.76309 v 0.95117 q 0,0.086 -0.0108,0.23645 -0.005,0.1451 -0.0215,0.34393 h 0.0322 q 0.13972,-0.22033 0.36542,-0.32781 0.23108,-0.10747 0.4944,-0.10747 0.28481,0 0.48902,0.11822 0.20958,0.11285 0.33856,0.32244 0.13434,0.20958 0.19883,0.48364 0.0645,0.2687 0.0645,0.58576 0,0.32243 -0.0699,0.60187 -0.0645,0.27944 -0.19884,0.48902 -0.13434,0.20421 -0.34393,0.32244 -0.20958,0.11822 -0.49439,0.11822 z m -0.26332,-0.64486 q 0.28481,0 0.42991,-0.22571 0.15047,-0.2257 0.15047,-0.66636 0,-0.44603 -0.15047,-0.65024 -0.15047,-0.20958 -0.43529,-0.20958 -0.25794,0 -0.41916,0.19346 -0.15584,0.18809 -0.15584,0.66636 0,0.45678 0.15047,0.67711 0.15584,0.21496 0.42991,0.21496 z m 2.30002,1.90772 q -0.0967,0 -0.19884,-0.0108 -0.0967,-0.0107 -0.19883,-0.0322 v -0.66636 q 0.0752,0.0161 0.15047,0.0215 0.0752,0.0107 0.12897,0.0107 0.16659,0 0.27944,-0.0591 0.11823,-0.0591 0.19884,-0.17734 0.086,-0.11285 0.13972,-0.27944 l 0.0484,-0.14509 -1.15538,-2.91264 h 0.84907 l 0.56426,1.68739 q 0.0376,0.10748 0.0645,0.23645 0.0323,0.1236 0.0537,0.27407 h 0.0161 q 0.0161,-0.1021 0.0323,-0.18271 0.0215,-0.086 0.043,-0.16659 0.0269,-0.0806 0.0484,-0.16122 l 0.49977,-1.68739 h 0.83833 l -1.12314,3.08997 q -0.1451,0.39767 -0.32781,0.65562 -0.17734,0.25794 -0.41379,0.38154 -0.23107,0.1236 -0.53738,0.1236 z" id="path28" />
      <path style="font-weight:bold;font-size:28px;line-height:1.25;font-family:Monospace;-inkscape-font-specification:'Monospace Bold';letter-spacing:0px;word-spacing:0px;white-space:pre;fill:#ffffff;stroke-width:0.191924" d="m 229.45903,181.9067 q -0.53739,0 -0.92431,-0.24183 -0.38691,-0.24182 -0.59112,-0.68785 -0.20421,-0.44604 -0.20421,-1.06403 0,-0.4944 0.11823,-0.91356 0.11822,-0.42454 0.34392,-0.74159 0.22571,-0.31706 0.54814,-0.48903 0.32781,-0.17734 0.74159,-0.17734 0.44066,0 0.76847,0.23646 0.33318,0.23107 0.51589,0.65023 0.18809,0.41917 0.18809,0.9888 0,0.27944 -0.0537,0.52664 -0.0484,0.2472 -0.15047,0.44066 -0.0967,0.19345 -0.24183,0.30631 -0.14509,0.10747 -0.33855,0.10747 -0.16659,0 -0.27407,-0.086 -0.10747,-0.086 -0.16659,-0.22033 h -0.0107 q -0.0752,0.11823 -0.19884,0.21496 -0.1236,0.0914 -0.30631,0.0914 -0.31168,0 -0.48365,-0.28481 -0.17196,-0.28482 -0.17196,-0.7416 0,-0.3493 0.1021,-0.61262 0.10748,-0.26869 0.30094,-0.41916 0.19346,-0.15584 0.46753,-0.15584 0.18808,0 0.36542,0.0484 0.18271,0.043 0.33318,0.0967 l -0.0537,1.05865 q -0.005,0.0376 -0.005,0.0806 0,0.0376 0,0.086 -0.005,0.21495 0.0322,0.29018 0.0376,0.0752 0.1021,0.0752 0.0699,0 0.11823,-0.11823 0.0537,-0.11822 0.0806,-0.32243 0.0322,-0.20421 0.0322,-0.4514 0,-0.72548 -0.26869,-1.08553 -0.2687,-0.36005 -0.68249,-0.36005 -0.38691,0 -0.66098,0.24183 -0.27407,0.23645 -0.41916,0.65561 -0.1451,0.41379 -0.1451,0.9458 0,0.51052 0.13435,0.8652 0.13972,0.35467 0.39766,0.53738 0.26332,0.18272 0.63412,0.18272 0.25257,0 0.50515,-0.0591 0.25794,-0.0645 0.46752,-0.16121 v 0.4514 q -0.19346,0.10211 -0.42991,0.15584 -0.23645,0.0591 -0.51589,0.0591 z m -0.16659,-1.53693 q 0.13972,0 0.19883,-0.19883 0.0645,-0.19884 0.0806,-0.4944 l 0.0269,-0.53739 q -0.0269,-0.0108 -0.0699,-0.0161 -0.0376,-0.0108 -0.0699,-0.0108 -0.14509,0 -0.23108,0.10748 -0.0806,0.1021 -0.11822,0.26869 -0.0322,0.16122 -0.0322,0.34393 0,0.28482 0.0537,0.41379 0.0537,0.1236 0.16121,0.1236 z m 2.72458,2.37525 q -0.19346,0 -0.41379,-0.0322 -0.22033,-0.0269 -0.42454,-0.086 v -0.66099 q 0.12897,0.0322 0.25795,0.0537 0.13434,0.0269 0.25257,0.0376 0.1236,0.0107 0.20958,0.0107 0.21496,0 0.34393,-0.0699 0.12897,-0.0645 0.18808,-0.21495 0.0591,-0.15047 0.0591,-0.40304 v -2.24091 l -0.83295,-0.0914 v -0.55351 h 1.61216 v 3.03624 q 0,0.62337 -0.31169,0.91893 -0.31168,0.29556 -0.94042,0.29556 z m 0.8007,-4.58391 q -0.23107,0 -0.3493,-0.11286 -0.11822,-0.11285 -0.11822,-0.33855 0,-0.22033 0.11822,-0.33318 0.11823,-0.11823 0.36005,-0.11823 0.23645,0 0.35468,0.11286 0.11822,0.11285 0.11822,0.33318 0,0.22033 -0.1236,0.33855 -0.11822,0.11823 -0.36005,0.11823 z m 3.19207,3.32105 q -0.4944,0 -0.81683,-0.16659 -0.31706,-0.16659 -0.4729,-0.4944 -0.15585,-0.33318 -0.15585,-0.8222 0,-0.51052 0.16122,-0.85445 0.16659,-0.3493 0.4944,-0.52663 0.3278,-0.17734 0.81682,-0.17734 0.22033,0 0.46753,0.043 0.2472,0.0376 0.47828,0.13972 l -0.22571,0.61799 q -0.21495,-0.086 -0.39229,-0.11285 -0.17734,-0.0269 -0.28481,-0.0269 -0.24183,0 -0.40304,0.0967 -0.16122,0.0967 -0.24183,0.29019 -0.0806,0.19346 -0.0806,0.48365 0,0.29556 0.086,0.48365 0.086,0.18809 0.2472,0.27944 0.16659,0.086 0.40304,0.086 0.16659,0 0.36543,-0.0484 0.2042,-0.0537 0.43528,-0.19346 v 0.6986 q -0.23108,0.11823 -0.44066,0.16122 -0.20958,0.043 -0.44065,0.043 z m 2.66006,0 q -0.46752,0 -0.73084,-0.27407 -0.25795,-0.27944 -0.25795,-0.8007 v -1.9131 h 0.77921 v 1.71426 q 0,0.29557 0.10211,0.46216 0.1021,0.16659 0.37079,0.16659 0.25795,0 0.3923,-0.11823 0.13434,-0.11822 0.18271,-0.33318 0.0537,-0.22033 0.0537,-0.51052 v -1.38108 h 0.77921 v 2.93413 H 239.75 l -0.12897,-0.37617 h -0.043 q -0.086,0.13435 -0.2257,0.23108 -0.13435,0.0967 -0.31169,0.14509 -0.17196,0.0537 -0.3708,0.0537 z m 3.86921,0 q -0.24719,0 -0.4729,-0.0967 -0.22033,-0.0967 -0.3708,-0.27944 h -0.0537 l -0.11823,0.32243 h -0.59113 v -4.08414 h 0.76309 v 0.95117 q 0,0.086 -0.0107,0.23645 -0.005,0.1451 -0.0215,0.34393 h 0.0322 q 0.13973,-0.22033 0.36543,-0.32781 0.23108,-0.10747 0.49439,-0.10747 0.28482,0 0.48903,0.11822 0.20958,0.11285 0.33855,0.32244 0.13435,0.20958 0.19884,0.48364 0.0645,0.2687 0.0645,0.58576 0,0.32243 -0.0699,0.60187 -0.0645,0.27944 -0.19883,0.48902 -0.13435,0.20421 -0.34393,0.32244 -0.20958,0.11822 -0.4944,0.11822 z m -0.26332,-0.64486 q 0.28482,0 0.42991,-0.22571 0.15047,-0.2257 0.15047,-0.66636 0,-0.44603 -0.15047,-0.65024 -0.15047,-0.20958 -0.43528,-0.20958 -0.25795,0 -0.41916,0.19346 -0.15585,0.18809 -0.15585,0.66636 0,0.45678 0.15047,0.67711 0.15585,0.21496 0.42991,0.21496 z m 1.90771,0.59112 v -0.48365 l 0.97805,-0.16121 v -1.64441 l -0.83296,-0.0914 v -0.55351 h 1.61217 v 2.28927 l 0.87594,0.16121 v 0.48365 z m 1.37034,-3.26731 q -0.23108,0 -0.3493,-0.11286 -0.11823,-0.11285 -0.11823,-0.33855 0,-0.22033 0.11823,-0.33318 0.11822,-0.11823 0.36005,-0.11823 0.23645,0 0.35467,0.11286 0.11823,0.11285 0.11823,0.33318 0,0.22033 -0.1236,0.33855 -0.11823,0.11823 -0.36005,0.11823 z m 3.35332,3.32105 q -0.4944,0 -0.81683,-0.16659 -0.31706,-0.16659 -0.4729,-0.4944 -0.15585,-0.33318 -0.15585,-0.8222 0,-0.51052 0.16122,-0.85445 0.16659,-0.3493 0.4944,-0.52663 0.3278,-0.17734 0.81682,-0.17734 0.22033,0 0.46753,0.043 0.2472,0.0376 0.47828,0.13972 l -0.22571,0.61799 q -0.21495,-0.086 -0.39229,-0.11285 -0.17734,-0.0269 -0.28481,-0.0269 -0.24183,0 -0.40304,0.0967 -0.16122,0.0967 -0.24183,0.29019 -0.0806,0.19346 -0.0806,0.48365 0,0.29556 0.086,0.48365 0.086,0.18809 0.2472,0.27944 0.16659,0.086 0.40304,0.086 0.16659,0 0.36543,-0.0484 0.2042,-0.0537 0.43528,-0.19346 v 0.6986 q -0.23108,0.11823 -0.44066,0.16122 -0.20958,0.043 -0.44065,0.043 z" id="path29" />
    </g>
  </g>
</svg>
